<svg width="5" height="7" viewBox="0 0 5 7" fill="none" xmlns="http://www.w3.org/2000/svg">
<path d="M0.596076 7C0.451594 7 0.330575 6.94937 0.233021 6.84812C0.135467 6.74686 0.0866894 6.62411 0.0866894 6.47986C0.0866894 6.4075 0.101138 6.33885 0.130034 6.27389C0.158931 6.20893 0.195109 6.15113 0.238569 6.10051L2.95854 3.53242L0.238569 0.964334C0.166212 0.913707 0.108419 0.850482 0.0651903 0.774657C0.0219612 0.698833 0.000231172 0.613993 0 0.520137C0 0.375655 0.0523604 0.252787 0.157081 0.151534C0.261802 0.0502807 0.38282 -0.000230382 0.520136 7.8988e-07C0.606826 7.8988e-07 0.686349 0.0180322 0.758705 0.0540949C0.831062 0.0901577 0.888855 0.140669 0.932084 0.205628L4.0529 3.15307C4.1033 3.19653 4.14294 3.25074 4.17184 3.3157C4.20074 3.38066 4.21518 3.4529 4.21518 3.53242C4.21518 3.60478 4.20074 3.67344 4.17184 3.73839C4.14294 3.80335 4.1033 3.86115 4.0529 3.91177L0.932084 6.85921C0.888624 6.90244 0.837997 6.93677 0.780204 6.9622C0.722412 6.98763 0.661035 7.00023 0.596076 7Z" fill="#CCCCCC"/>
</svg>
