<svg width="10" height="10" viewBox="0 0 10 10" fill="none" xmlns="http://www.w3.org/2000/svg">
<path d="M5 10C4.82639 10 4.67875 9.93917 4.55708 9.8175C4.43542 9.69583 4.37472 9.54833 4.375 9.375V0.625001C4.375 0.45139 4.43583 0.30389 4.5575 0.182501C4.67917 0.0611121 4.82667 0.000278725 5 9.46969e-07C5.17333 -0.000276831 5.32097 0.0605565 5.44292 0.182501C5.56486 0.304445 5.62556 0.451945 5.625 0.625001V9.375C5.625 9.54861 5.56417 9.69625 5.4425 9.81792C5.32083 9.93958 5.17333 10.0003 5 10ZM9.375 5.625H0.625001C0.45139 5.625 0.303751 5.56431 0.182084 5.44292C0.0604175 5.32153 -0.000276829 5.17389 9.49128e-07 5C0.000278727 4.82611 0.0611121 4.67861 0.182501 4.5575C0.30389 4.43639 0.45139 4.37556 0.625001 4.375H9.375C9.54861 4.375 9.69625 4.43583 9.81792 4.5575C9.93958 4.67917 10.0003 4.82667 10 5C9.99972 5.17333 9.93889 5.32097 9.8175 5.44292C9.69611 5.56486 9.54861 5.62556 9.375 5.625Z" fill="#898D8D"/>
</svg>
