<svg width="16" height="16" viewBox="0 0 16 16" fill="none" xmlns="http://www.w3.org/2000/svg">
<path d="M11.625 0C10.875 0 10.1823 0.1745 9.547 0.5235C8.91167 0.8725 8.401 1.33867 8.015 1.922L8 1.9375C7.604 1.34383 7.08833 0.8725 6.453 0.5235C5.81767 0.1745 5.125 0 4.375 0C3.77067 0 3.203 0.114667 2.672 0.344C2.141 0.573333 1.67733 0.883 1.281 1.273C0.884667 1.663 0.572333 2.12417 0.344 2.6565C0.115667 3.18883 0.001 3.7565 0 4.3595V4.8905C0 6.38017 0.291667 7.79683 0.875 9.1405C1.46867 10.4845 2.18217 11.6642 3.0155 12.6795C3.84883 13.6948 4.72383 14.5048 5.6405 15.1095C6.55717 15.7032 7.34367 16 8 16C8.65633 16 9.44283 15.7032 10.3595 15.1095C11.2762 14.5052 12.1512 13.6952 12.9845 12.6795C13.8178 11.6638 14.5313 10.4842 15.125 9.1405C15.7083 7.79683 16 6.38017 16 4.8905V4.375C16 3.771 15.8853 3.20333 15.656 2.672C15.4267 2.14067 15.1143 1.67717 14.719 1.2815C14.3237 0.885833 13.8603 0.573333 13.329 0.344C12.7977 0.114667 12.2293 0 11.625 0ZM14.5 4.8905C14.5 6.2655 14.2343 7.54167 13.703 8.719C13.1613 9.89567 12.5312 10.9112 11.8125 11.7655C11.0938 12.6198 10.375 13.2918 9.656 13.7815C8.927 14.2605 8.375 14.5 8 14.5C7.625 14.5 7.07817 14.2603 6.3595 13.781C5.63017 13.2917 4.90617 12.62 4.1875 11.766C3.46883 10.912 2.84383 9.89617 2.3125 8.7185C1.77083 7.54217 1.5 6.26633 1.5 4.891V4.203C1.5 3.41133 1.78133 2.73433 2.344 2.172C2.90667 1.60967 3.58367 1.32833 4.375 1.328C5.16633 1.32767 5.8435 1.609 6.4065 2.172C6.9695 2.735 7.25067 3.412 7.25 4.203V4.3905V4.375V4.625C7.25 4.83333 7.323 5.0105 7.469 5.1565C7.615 5.3025 7.792 5.37533 8 5.375C8.208 5.37467 8.38517 5.30183 8.5315 5.1565C8.67783 5.01117 8.75067 4.834 8.75 4.625V4.203C8.75 3.41133 9.03133 2.73433 9.594 2.172C10.1567 1.60967 10.8337 1.32833 11.625 1.328C12.4163 1.32767 13.0935 1.609 13.6565 2.172C14.2195 2.735 14.5007 3.412 14.5 4.203V4.3905V4.375V4.8905Z" fill="#FF5C38"/>
<path d="M14.5 4.8905C14.5 6.2655 14.2343 7.54167 13.703 8.719C13.1613 9.89567 12.5312 10.9112 11.8125 11.7655C11.0938 12.6198 10.375 13.2918 9.656 13.7815C8.927 14.2605 8.375 14.5 8 14.5C7.625 14.5 7.07817 14.2603 6.3595 13.781C5.63017 13.2917 4.90617 12.62 4.1875 11.766C3.46883 10.912 2.84383 9.89617 2.3125 8.7185C1.77083 7.54217 1.5 6.26633 1.5 4.891V4.203C1.5 3.41133 1.78133 2.73433 2.344 2.172C2.90667 1.60967 3.58367 1.32833 4.375 1.328C5.16633 1.32767 5.8435 1.609 6.4065 2.172C6.9695 2.735 7.25067 3.412 7.25 4.203V4.375V4.3905V4.625C7.25 4.83333 7.323 5.0105 7.469 5.1565C7.615 5.3025 7.792 5.37533 8 5.375C8.208 5.37467 8.38517 5.30183 8.5315 5.1565C8.67783 5.01117 8.75067 4.834 8.75 4.625V4.203C8.75 3.41133 9.03133 2.73433 9.594 2.172C10.1567 1.60967 10.8337 1.32833 11.625 1.328C12.4163 1.32767 13.0935 1.609 13.6565 2.172C14.2195 2.735 14.5007 3.412 14.5 4.203V4.375V4.3905V4.8905Z" fill="#FF5C38"/>
</svg>
