<svg width="142" height="26" viewBox="0 0 142 26" fill="none" xmlns="http://www.w3.org/2000/svg">
<g clip-path="url(#clip0_1_32)">
<rect width="142" height="26" fill="white"/>
<path fill-rule="evenodd" clip-rule="evenodd" d="M37.7377 8.17923C39.1407 6.89494 41.0007 6.25281 43.3177 6.25281C45.6348 6.25281 47.4948 6.89494 48.8977 8.17923C50.4495 9.56878 51.2254 11.3583 51.2254 13.5479C51.2254 15.7165 50.4495 17.4955 48.8977 18.8851C47.4948 20.1693 45.6348 20.8115 43.3177 20.8115C41.0007 20.8115 39.1407 20.1693 37.7377 18.8851C36.1859 17.4955 35.41 15.7165 35.41 13.5479C35.41 11.3583 36.1859 9.56878 37.7377 8.17923ZM40.5436 16.2637C41.2876 17.0217 42.2123 17.4006 43.3177 17.4006C44.4231 17.4006 45.3477 17.0217 46.0917 16.2637C46.8358 15.5058 47.2078 14.6005 47.2078 13.5478C47.2078 12.474 46.8358 11.5582 46.0917 10.8003C45.3477 10.0423 44.4231 9.66337 43.3177 9.66337C42.2123 9.66337 41.2876 10.0423 40.5436 10.8003C39.7996 11.5582 39.4276 12.474 39.4276 13.5478C39.4276 14.6005 39.7996 15.5058 40.5436 16.2637ZM63.9721 12.3163L60.3372 20.3693H58.424L51.4091 6.6949H55.7456L59.3806 14.5901L63.0793 6.6949H64.8649L68.5637 14.5901L72.1987 6.6949H76.5352L69.5203 20.3693H67.6071L63.9721 12.3163Z" fill="#F6D365"/>
<path fill-rule="evenodd" clip-rule="evenodd" d="M0 12.9998C0 5.82087 5.81203 0 12.9787 0C20.1454 0 25.957 5.82087 25.957 12.9998C25.957 20.1779 20.1454 26 12.9787 26C5.81203 26 0 20.1779 0 12.9998ZM15.5828 19.0303L19.2289 15.4191L19.2301 6.90401H10.6323L6.98621 10.5156L13.0045 10.5148L5.56011 17.888L8.13882 20.442L15.5828 13.0689V19.0303Z" fill="#F6D365"/>
<path d="M136.102 20.1213C135.1 20.1213 134.202 19.962 133.407 19.6434C132.611 19.3168 131.935 18.8667 131.379 18.2932C130.83 17.7197 130.408 17.0545 130.114 16.2978C129.82 15.5331 129.673 14.7206 129.673 13.8603V13.3824C129.673 12.4026 129.812 11.5064 130.09 10.6939C130.369 9.88145 130.766 9.17649 131.283 8.57906C131.808 7.98163 132.444 7.52361 133.192 7.20498C133.939 6.87838 134.782 6.71509 135.721 6.71509C136.635 6.71509 137.446 6.86644 138.154 7.16913C138.862 7.47183 139.454 7.90198 139.932 8.45957C140.417 9.01717 140.783 9.68629 141.029 10.4669C141.276 11.2396 141.399 12.0999 141.399 13.0478V14.4816H131.14V12.1875H138.023V11.9246C138.023 11.4467 137.936 11.0205 137.761 10.6462C137.594 10.2638 137.339 9.96111 136.997 9.73807C136.655 9.51503 136.218 9.40351 135.685 9.40351C135.232 9.40351 134.842 9.50308 134.516 9.70222C134.19 9.90136 133.923 10.1802 133.717 10.5386C133.518 10.8971 133.367 11.3193 133.263 11.8052C133.168 12.2831 133.12 12.8088 133.12 13.3824V13.8603C133.12 14.3781 133.192 14.856 133.335 15.2941C133.486 15.7322 133.697 16.1106 133.967 16.4292C134.246 16.7479 134.58 16.9948 134.969 17.1701C135.367 17.3453 135.816 17.4329 136.317 17.4329C136.937 17.4329 137.514 17.3134 138.047 17.0745C138.588 16.8275 139.053 16.4571 139.443 15.9633L141.113 17.7794C140.842 18.1697 140.472 18.5441 140.003 18.9026C139.542 19.261 138.985 19.5558 138.333 19.7868C137.681 20.0098 136.937 20.1213 136.102 20.1213Z" fill="#F6D365"/>
<path d="M123.668 9.77391V19.8824H120.232V6.95406H123.465L123.668 9.77391ZM127.557 6.87042L127.497 10.0607C127.33 10.0368 127.127 10.0169 126.889 10.0009C126.658 9.97704 126.447 9.96509 126.256 9.96509C125.771 9.96509 125.35 10.0288 124.992 10.1563C124.642 10.2757 124.348 10.455 124.109 10.6939C123.879 10.9329 123.704 11.2237 123.584 11.5662C123.473 11.9087 123.409 12.299 123.394 12.7371L122.702 12.5221C122.702 11.6857 122.785 10.917 122.952 10.216C123.119 9.50706 123.362 8.88972 123.68 8.36398C124.006 7.83825 124.404 7.432 124.873 7.14523C125.342 6.85847 125.879 6.71509 126.483 6.71509C126.674 6.71509 126.869 6.73102 127.068 6.76288C127.266 6.78678 127.429 6.82262 127.557 6.87042Z" fill="#F6D365"/>
<path d="M104.672 13.5496V13.2987C104.672 12.3508 104.808 11.4786 105.078 10.682C105.348 9.87747 105.742 9.18047 106.259 8.59101C106.776 8.00155 107.412 7.54352 108.168 7.21693C108.923 6.88237 109.79 6.71509 110.768 6.71509C111.746 6.71509 112.617 6.88237 113.38 7.21693C114.144 7.54352 114.784 8.00155 115.301 8.59101C115.826 9.18047 116.224 9.87747 116.494 10.682C116.764 11.4786 116.899 12.3508 116.899 13.2987V13.5496C116.899 14.4896 116.764 15.3618 116.494 16.1664C116.224 16.9629 115.826 17.6599 115.301 18.2574C114.784 18.8468 114.148 19.3049 113.392 19.6314C112.637 19.958 111.77 20.1213 110.792 20.1213C109.814 20.1213 108.943 19.958 108.18 19.6314C107.424 19.3049 106.784 18.8468 106.259 18.2574C105.742 17.6599 105.348 16.9629 105.078 16.1664C104.808 15.3618 104.672 14.4896 104.672 13.5496ZM108.108 13.2987V13.5496C108.108 14.0913 108.156 14.5971 108.251 15.0671C108.347 15.5371 108.498 15.9513 108.704 16.3098C108.919 16.6602 109.197 16.9351 109.539 17.1342C109.881 17.3333 110.299 17.4329 110.792 17.4329C111.269 17.4329 111.679 17.3333 112.021 17.1342C112.363 16.9351 112.637 16.6602 112.844 16.3098C113.05 15.9513 113.202 15.5371 113.297 15.0671C113.4 14.5971 113.452 14.0913 113.452 13.5496V13.2987C113.452 12.773 113.4 12.2791 113.297 11.8171C113.202 11.3471 113.046 10.9329 112.832 10.5745C112.625 10.208 112.351 9.92128 112.009 9.71417C111.667 9.50706 111.253 9.40351 110.768 9.40351C110.283 9.40351 109.869 9.50706 109.527 9.71417C109.193 9.92128 108.919 10.208 108.704 10.5745C108.498 10.9329 108.347 11.3471 108.251 11.8171C108.156 12.2791 108.108 12.773 108.108 13.2987Z" fill="#F6D365"/>
<path d="M102.354 6.95405V9.39155H94.8384V6.95405H102.354ZM96.6993 3.76379H100.135V15.9871C100.135 16.3615 100.182 16.6483 100.278 16.8474C100.381 17.0466 100.532 17.186 100.731 17.2656C100.93 17.3373 101.181 17.3732 101.483 17.3732C101.697 17.3732 101.888 17.3652 102.055 17.3493C102.23 17.3254 102.377 17.3015 102.497 17.2776L102.509 19.8107C102.214 19.9063 101.896 19.9819 101.554 20.0377C101.212 20.0935 100.835 20.1213 100.421 20.1213C99.6656 20.1213 99.0055 19.9979 98.4409 19.7509C97.8842 19.496 97.4548 19.0898 97.1526 18.5322C96.8504 17.9746 96.6993 17.2417 96.6993 16.3336V3.76379Z" fill="#F6D365"/>
<path d="M89.2391 16.3098C89.2391 16.0628 89.1675 15.8398 89.0244 15.6406C88.8812 15.4415 88.6148 15.2583 88.2251 15.091C87.8434 14.9158 87.2907 14.7564 86.567 14.6131C85.9149 14.4697 85.3066 14.2905 84.7419 14.0754C84.1853 13.8523 83.7002 13.5855 83.2866 13.2748C82.881 12.9642 82.5629 12.5977 82.3323 12.1756C82.1017 11.7454 81.9864 11.2555 81.9864 10.7059C81.9864 10.1642 82.1017 9.65443 82.3323 9.17649C82.5709 8.69854 82.9089 8.27636 83.3463 7.90994C83.7916 7.53555 84.3324 7.24481 84.9686 7.0377C85.6127 6.82262 86.3364 6.71509 87.1396 6.71509C88.2609 6.71509 89.2232 6.89432 90.0264 7.25277C90.8375 7.61123 91.4578 8.1051 91.8873 8.73439C92.3246 9.35571 92.5433 10.0647 92.5433 10.8612H89.1079C89.1079 10.5267 89.0363 10.228 88.8931 9.96509C88.7579 9.69425 88.5432 9.48316 88.249 9.33182C87.9627 9.1725 87.5889 9.09285 87.1277 9.09285C86.746 9.09285 86.4159 9.16055 86.1376 9.29597C85.8593 9.42342 85.6445 9.59867 85.4934 9.82171C85.3503 10.0368 85.2787 10.2757 85.2787 10.5386C85.2787 10.7378 85.3185 10.917 85.398 11.0763C85.4855 11.2276 85.6247 11.367 85.8155 11.4945C86.0064 11.622 86.2529 11.7414 86.5551 11.853C86.8653 11.9565 87.247 12.0521 87.7003 12.1397C88.6307 12.3309 89.4617 12.5818 90.1934 12.8925C90.925 13.1952 91.5055 13.6094 91.935 14.1351C92.3644 14.6529 92.5791 15.334 92.5791 16.1783C92.5791 16.7519 92.4519 17.2776 92.1974 17.7555C91.9429 18.2335 91.5771 18.6517 91.1 19.0101C90.6228 19.3606 90.0502 19.6354 89.3822 19.8346C88.7222 20.0258 87.9786 20.1213 87.1515 20.1213C85.9507 20.1213 84.9328 19.9063 84.0978 19.4761C83.2707 19.046 82.6425 18.5003 82.213 17.8392C81.7916 17.1701 81.5808 16.485 81.5808 15.784H84.8374C84.8533 16.254 84.9726 16.6324 85.1952 16.9191C85.4258 17.2059 85.7161 17.413 86.066 17.5405C86.4239 17.6679 86.8096 17.7316 87.2231 17.7316C87.6685 17.7316 88.0382 17.6719 88.3325 17.5524C88.6267 17.425 88.8494 17.2577 89.0005 17.0506C89.1596 16.8355 89.2391 16.5886 89.2391 16.3098Z" fill="#F6D365"/>
</g>
<defs>
<clipPath id="clip0_1_32">
<rect width="142" height="26" fill="white"/>
</clipPath>
</defs>
</svg>
